<?xml version="1.0" encoding="UTF-8"?>
<svg id="Layer_1" data-name="Layer 1" xmlns="http://www.w3.org/2000/svg" version="1.1" viewBox="0 0 75 28">
  <defs>
    <style>
      .cls-1 {
        fill: #2a2421;
        stroke-width: 0px;
      }
    </style>
  </defs>
  <g>
    <path class="cls-1" d="M.8,18.9h3.3v.8H0V6.8h.8v12.1Z"/>
    <path class="cls-1" d="M6.9,9.2c0,.4-.3.7-.7.7s-.7-.3-.7-.7.3-.7.7-.7.7.3.7.7ZM6.6,19.7h-.8v-7.9h.8v7.9Z"/>
    <path class="cls-1" d="M11.9,18.3l2.8-6.5h.8l-3.6,8.3-3.6-8.3h.8l2.9,6.5Z"/>
    <path class="cls-1" d="M16.9,15.8c0,2,1.3,3.3,3.2,3.3s2.2-.7,2.8-1.8l.6.4c-.7,1.4-2,2.1-3.5,2.1-2.3,0-3.8-1.9-3.8-4.1s1.5-4.1,3.8-4.1,3.8,1.9,3.8,4.2h-6.9ZM23,15.1c-.2-1.5-1.4-2.8-3-2.8s-2.9,1.3-3.1,2.8h6.1Z"/>
    <path class="cls-1" d="M29,19.7h-2.5V6.8h2.5v12.9Z"/>
    <path class="cls-1" d="M33.1,12.1h0c.5-.8,1.3-1,2.2-1,2.3,0,2.9,1.6,2.9,3.5v5.1h-2.4v-4.4c0-1,0-2.3-1.3-2.3s-1.4,1.6-1.4,2.6v4.2h-2.4v-8.4h2.4v.8Z"/>
    <path class="cls-1" d="M42.5,19.7h-2.4v-6.4h-.8v-2h.8v-2.5c0-2.1.9-3.8,3.2-3.8s.8,0,1.1.3v2.1c-.3-.2-.6-.3-1-.3-1.1,0-.9,1.4-.9,2.1v2.1h1.9v2h-1.9v6.4ZM47.7,7.8c0,.8-.6,1.4-1.4,1.4s-1.4-.6-1.4-1.4.6-1.4,1.4-1.4,1.4.6,1.4,1.4ZM47.5,19.7h-2.4v-8.4h2.4v8.4Z"/>
    <path class="cls-1" d="M51.7,12.1h0c.5-.8,1.3-1,2.2-1,2.3,0,2.9,1.6,2.9,3.5v5.1h-2.4v-4.4c0-1,0-2.3-1.3-2.3s-1.4,1.6-1.4,2.6v4.2h-2.4v-8.4h2.4v.8Z"/>
    <path class="cls-1" d="M61.3,7.8c0,.8-.6,1.4-1.4,1.4s-1.4-.6-1.4-1.4.6-1.4,1.4-1.4,1.4.6,1.4,1.4ZM61,19.7h-2.4v-8.4h2.4v8.4Z"/>
    <path class="cls-1" d="M65.5,19.7h-2.4v-6.4h-.8v-2h.8v-2.8h2.4v2.8h1.5v2h-1.5v6.4Z"/>
    <path class="cls-1" d="M69.5,15.9c0,1.1.4,2.3,1.7,2.3s1.3-.5,1.6-1.1l2.2.4c-.6,1.7-2.1,2.6-3.8,2.6-2.6,0-4.2-1.8-4.2-4.4s1.4-4.6,4.1-4.6,4,2,4,4.6v.3h-5.5ZM72.7,14.4c-.1-.9-.7-1.7-1.6-1.7s-1.5.8-1.6,1.7h3.2Z"/>
  </g>
  <g>
    <path class="cls-1" d="M25.3,3.6c-.2,0-.3,0-.5,0-.1,0-.3-.1-.4-.3-.1-.1-.2-.2-.2-.4,0-.1,0-.3,0-.5s0-.3,0-.5c0-.1.1-.3.2-.4.1-.1.2-.2.4-.3.1,0,.3,0,.5,0s.4,0,.5,0c.1,0,.3.1.4.3l-.3.3c0,0-.2-.1-.3-.2,0,0-.2,0-.3,0s-.2,0-.3,0c0,0-.2,0-.2.2,0,0-.1.2-.2.3,0,.1,0,.2,0,.3s0,.2,0,.3,0,.2.2.3c0,0,.2.1.2.2,0,0,.2,0,.3,0s.3,0,.4,0c0,0,.2-.1.3-.2l.3.3c-.1.1-.2.2-.4.3-.1,0-.3,0-.5,0Z"/>
    <path class="cls-1" d="M28.7,3.6c-.2,0-.3,0-.5,0-.1,0-.3-.1-.4-.3-.1-.1-.2-.2-.3-.4,0-.1,0-.3,0-.5s0-.3,0-.5c0-.1.1-.3.3-.4.1-.1.2-.2.4-.3.1,0,.3,0,.5,0s.3,0,.5,0c.1,0,.3.1.4.3.1.1.2.2.3.4,0,.1,0,.3,0,.5s0,.3,0,.5c0,.1-.1.3-.3.4-.1.1-.2.2-.4.3-.1,0-.3,0-.5,0ZM28.7,3.3c.2,0,.3,0,.4-.1.1,0,.2-.2.3-.3,0-.1.1-.3.1-.4s0-.2,0-.3c0-.1,0-.2-.2-.3,0,0-.2-.1-.3-.2,0,0-.2,0-.3,0s-.3,0-.4.1c-.1,0-.2.2-.3.3,0,.1-.1.3-.1.4s0,.2,0,.3,0,.2.2.3c0,0,.2.1.3.2,0,0,.2,0,.3,0Z"/>
    <path class="cls-1" d="M31.4,3.6V1.3h.4v2.3h-.4ZM31.7,3.6v-.3h.6c.2,0,.3,0,.4-.1.1,0,.2-.2.3-.3,0-.1.1-.3.1-.4s0-.3-.1-.4c0-.1-.2-.2-.3-.3-.1,0-.3-.1-.4-.1h-.6v-.3h.6c.2,0,.3,0,.5,0s.3.1.4.2c.1.1.2.2.3.4s0,.3,0,.5,0,.3,0,.5-.1.3-.2.4c-.1.1-.2.2-.4.2-.1,0-.3,0-.5,0h-.6Z"/>
    <path class="cls-1" d="M35.1,3.6V1.3h.4v2.3h-.4ZM35.4,1.6v-.3h1.3v.3h-1.3ZM35.4,2.6v-.3h1.2v.3h-1.2ZM35.4,3.6v-.3h1.3v.3h-1.3Z"/>
    <path class="cls-1" d="M38.2,3.6V1.3h.3v.4c.1,0,.1,1.9.1,1.9h-.4ZM39.9,3.6l-1.4-1.8v-.5s1.4,1.8,1.4,1.8v.5ZM39.9,3.6v-.4c-.1,0-.1-1.9-.1-1.9h.4v2.3h-.3Z"/>
    <path class="cls-1" d="M41.6,3.6l1-2.3h.3l.9,2.3h-.4l-.7-1.9h.1l-.7,1.9h-.4ZM42.1,3.2v-.3h1.2v.3h-1.2Z"/>
    <path class="cls-1" d="M45.3,3.6V1.3h.3l1,1.6h-.2l1-1.6h.3v2.3h-.4v-1.7h0s-.7,1.2-.7,1.2h-.3l-.7-1.2h0s0,1.6,0,1.6h-.4Z"/>
    <path class="cls-1" d="M49.3,3.6V1.3h.4v2.3h-.4ZM49.6,1.6v-.3h1.3v.3h-1.3ZM49.6,2.6v-.3h1.2v.3h-1.2ZM49.6,3.6v-.3h1.3v.3h-1.3Z"/>
  </g>
  <g>
    <path class="cls-1" d="M24.1,26.7v-3.1h.5v3.1h-.5ZM24.4,25.6v-.4h.8c.1,0,.2,0,.3,0s.1-.1.2-.2c0,0,0-.2,0-.3s0-.2,0-.3c0,0-.1-.1-.2-.2s-.2,0-.3,0h-.8v-.4h.8c.2,0,.4,0,.5.1.2,0,.3.2.4.3,0,.1.1.3.1.5s0,.4-.1.5c0,.1-.2.3-.4.3-.2,0-.3.1-.5.1h-.8Z"/>
    <path class="cls-1" d="M28.4,26.7l1.3-3.1h.4l1.3,3.1h-.5l-1-2.5h.2l-1,2.5h-.5ZM29,26.2v-.4h1.6v.4h-1.6Z"/>
    <path class="cls-1" d="M33.8,26.7v-3.1h.4l.2.6v2.5h-.5ZM35.9,26.7l-1.8-2.4v-.7c0,0,1.9,2.4,1.9,2.4v.7ZM35.9,26.7l-.2-.5v-2.5h.5v3.1h-.4Z"/>
    <path class="cls-1" d="M40.1,26.7l-1.2-3.1h.6l1,2.5h-.2l1-2.5h.5l-1.3,3.1h-.4Z"/>
    <path class="cls-1" d="M44.2,26.7v-3.1h.5v3.1h-.5ZM44.6,24.1v-.5h1.7v.5h-1.7ZM44.6,25.4v-.4h1.6v.4h-1.6ZM44.6,26.7v-.5h1.7v.5h-1.7Z"/>
    <path class="cls-1" d="M48.9,26.7v-3.1h.5v3.1h-.5ZM49.3,26.7v-.5h1.6v.5h-1.6Z"/>
  </g>
  <rect class="cls-1" x="0" y="21.7" width="74.9" height=".3"/>
</svg>